<?xml version="1.0" encoding="utf-8" ?><svg xmlns="http://www.w3.org/2000/svg" xmlns:xlink="http://www.w3.org/1999/xlink" width="1536" height="1024" viewBox="0 0 1536 1024"><defs><linearGradient id="gradient_0" gradientUnits="userSpaceOnUse" x1="526.0506" y1="400.4111" x2="653.21667" y2="261.80997"><stop offset="0" stop-color="#0149CC"/><stop offset="1" stop-color="#16A3E9"/></linearGradient></defs><path fill="url(#gradient_0)" transform="scale(1.23077 1.23077)" d="M691.801 189.776C716.146 187.57 746.556 187.092 767.797 201.291C736.029 216.083 729.811 235.48 718.331 266.492L717.61 268.031C715.353 276.536 712.075 285.011 708.862 293.203C697.741 321.552 682.616 347.452 655.565 363.106C609.588 389.711 581.414 364.105 544.267 377.652C531.541 382.293 520.969 390.537 511.068 399.579C522.582 376.175 540.952 358.59 565.849 350.05C574.605 346.963 583.794 345.278 593.076 345.059C595.438 349.149 598.336 354.513 603.365 355.532C620.397 358.985 627.68 330.618 608.252 328.208C600.01 327.186 596.397 332.614 593.045 339.169C564.043 341.41 538.814 352.471 519.089 374.205C509.705 385.519 504.402 394.946 500.579 409.09C492.841 376.479 496.919 356.424 523.59 334.007C531.684 327.559 539.993 323.327 549.769 320.122C552.268 319.303 556.244 318.458 558.897 317.808C560.282 319.414 562.855 322.503 564.695 323.223C569.795 324.971 576.786 323.299 579.099 317.843C582.578 309.637 573.893 297.091 564.695 301.416C560.734 303.278 559.068 308.616 557.795 312.719C551.48 314.154 545.98 315.514 539.759 317.297C533.196 269.507 576.177 230.907 615.228 212.251C620.351 210.111 625.056 207.461 630.563 205.458C650.092 198.353 671.226 192.309 691.801 189.776ZM621.21 260.083C614.104 259.988 606.997 259.971 599.89 260.031C600.009 268.024 600.082 276.017 600.11 284.011C607.135 283.942 614.456 283.765 621.451 284.021C621.425 290.219 621.178 298.225 621.552 304.274L644.729 304.291L644.707 284.051L665.45 283.799L665.473 260.118C658.515 259.797 651.689 259.899 644.732 259.956L644.872 245.481C645.774 244.362 645.655 239.679 645.703 238.009C646.269 243.534 645.969 253.305 645.951 259.165C653.197 258.555 659.788 259.408 666.814 258.592C666.9 265.237 666.251 278.751 668.471 284.312L669.527 285.272L671.296 284.729C680.118 294.979 688.625 298.691 697.488 309.697C700.055 309.26 700.278 309.627 701.634 307.502C705.225 301.87 714.419 270.589 717.61 268.031L718.331 266.492C729.811 235.48 736.029 216.083 767.797 201.291C746.556 187.092 716.146 187.57 691.801 189.776C671.226 192.309 650.092 198.353 630.563 205.458C625.056 207.461 620.351 210.111 615.228 212.251C615.196 224.133 621.991 222.7 627.631 230.848L627.329 231.385C624.39 230.182 615.897 222.198 614.627 218.876C614.197 217.751 614.468 215.906 613.965 214.068C611.322 215.336 609.516 216.29 606.999 217.789L606.899 218.348C603.843 234.605 617.222 229.132 620.37 237.954L621.31 237.821L621.626 238.77C620.805 244.662 621.101 253.938 621.21 260.083Z"/><path fill="#2CBCE7" transform="scale(1.23077 1.23077)" d="M691.801 189.776C716.146 187.57 746.556 187.092 767.797 201.291C736.029 216.083 729.811 235.48 718.331 266.492L717.61 268.031C714.419 270.589 705.225 301.87 701.634 307.502C700.278 309.627 700.055 309.26 697.488 309.697C688.625 298.691 680.118 294.979 671.296 284.729L669.527 285.272L668.471 284.312C666.251 278.751 666.9 265.237 666.814 258.592C659.788 259.408 653.197 258.555 645.951 259.165C645.969 253.305 646.269 243.534 645.703 238.009C645.655 239.679 645.774 244.362 644.872 245.481L644.749 238.731C637.059 238.592 629.395 239.176 621.626 238.77L621.31 237.821L620.37 237.954C617.222 229.132 603.843 234.605 606.899 218.348L606.999 217.789C609.516 216.29 611.322 215.336 613.965 214.068C614.468 215.906 614.197 217.751 614.627 218.876C615.897 222.198 624.39 230.182 627.329 231.385L627.631 230.848C621.991 222.7 615.196 224.133 615.228 212.251C620.351 210.111 625.056 207.461 630.563 205.458C650.092 198.353 671.226 192.309 691.801 189.776ZM672.423 229.346C673.616 227.552 674.248 226.996 674.143 224.924C673.17 223.168 673.068 223.15 671.291 222.096C669.912 224.186 669.293 224.379 669.24 226.622C670.526 228.195 670.673 228.25 672.423 229.346ZM699.742 266.729C700.722 266.43 701.447 265.601 701.614 264.591C701.781 263.58 701.362 262.562 700.531 261.963C699.7 261.364 698.602 261.288 697.696 261.765C696.467 262.414 695.932 263.892 696.462 265.178C696.992 266.464 698.413 267.136 699.742 266.729Z"/><path fill="#0E87DD" transform="scale(1.23077 1.23077)" d="M621.31 237.821L620.968 236.628C622.306 235.925 625.417 236.401 626.847 236.827C631.386 238.176 642.002 236.747 645.703 238.009C645.655 239.679 645.774 244.362 644.872 245.481L644.749 238.731C637.059 238.592 629.395 239.176 621.626 238.77L621.31 237.821Z"/><path fill="#0E87DD" transform="scale(1.23077 1.23077)" d="M724.022 207.593C736.084 203.251 741.86 201.521 754.563 200.446C751.272 201.499 748.001 202.572 744.71 203.655C723.382 210.677 704.356 226.637 693.482 246.252C693.098 246.945 692.77 247.845 692.518 248.598C691.395 249.792 684.559 260.898 683.217 263.01C682.665 258.019 681.886 251.337 678.288 247.4C676.98 245.969 673.963 248.093 671.662 247.123C673.289 244.188 677.852 240.175 680.26 237.609C694.129 222.833 705.963 216.14 724.022 207.593Z"/><path fill="#122E6C" transform="scale(1.23077 1.23077)" d="M500.579 409.09C492.841 376.479 496.919 356.424 523.59 334.007C526.038 339.746 523.288 343.627 522.593 350.055C518.015 356.421 514.146 361.747 510.551 368.743C513.093 370.193 517.095 372.251 519.089 374.205C509.705 385.519 504.402 394.946 500.579 409.09Z"/><path fill="#0255BF" transform="scale(1.23077 1.23077)" d="M523.59 334.007C531.684 327.559 539.993 323.327 549.769 320.122C548.922 326.016 532.234 338.628 528.122 344.225C527.462 345.124 523.369 349.442 522.593 350.055C523.288 343.627 526.038 339.746 523.59 334.007Z"/><path fill="#122E6C" transform="scale(1.23077 1.23077)" d="M692.679 342.349C695.986 337.785 698.244 333.981 701.118 329.127C698.73 338.335 696.012 350.026 691.868 358.428C680.445 387.727 647.832 416.531 619.314 428.391C610.382 432.106 596.41 437.073 586.72 437.666C557.179 442.549 532.097 436.058 507.725 419.181C516.615 402.83 524.237 395.273 541.15 387.398C561.285 376.789 587.329 384.55 608.543 384.44C632.02 384.319 650.596 377.768 669.714 364.675C679.783 356.93 684.571 352.056 692.679 342.349Z"/><path fill="#056CD0" transform="scale(1.23077 1.23077)" d="M692.679 342.349C695.986 337.785 698.244 333.981 701.118 329.127C698.73 338.335 696.012 350.026 691.868 358.428C691.022 355.323 694.599 350.503 693.165 348.063L691.491 349.672C686.309 364.361 660.918 383.167 646.839 388.99C644.536 389.943 629.212 397.232 628.255 398.323C626.88 398.724 623.888 399.44 622.874 400.215C597.371 408.642 579.162 409.974 552.417 410.226C552.048 403.235 549.896 397.444 548.254 390.688C545.887 391.305 544.411 391.527 542.009 391.87C542.886 390.175 555.992 387.753 559.026 386.519C552.201 380.781 546.4 389.54 541.15 387.398C561.285 376.789 587.329 384.55 608.543 384.44C632.02 384.319 650.596 377.768 669.714 364.675C679.783 356.93 684.571 352.056 692.679 342.349Z"/><path fill="#0E87DD" transform="scale(1.23077 1.23077)" d="M669.714 364.675C669.299 368.13 667.204 370.163 664.525 372.093C638.234 391.038 606.319 392.393 575.405 387.411C572.159 386.888 560.34 387.118 559.026 386.519C552.201 380.781 546.4 389.54 541.15 387.398C561.285 376.789 587.329 384.55 608.543 384.44C632.02 384.319 650.596 377.768 669.714 364.675Z"/><path fill="#0255BF" transform="scale(1.23077 1.23077)" d="M691.491 349.672L693.165 348.063C694.599 350.503 691.022 355.323 691.868 358.428C680.445 387.727 647.832 416.531 619.314 428.391C610.382 432.106 596.41 437.073 586.72 437.666C591.107 433.239 611.338 433.488 617.548 426.494L617.258 425.387C613.972 425.444 599.222 431.56 594.502 432.105C588.474 432.802 581.891 432.899 575.797 433.327C575.941 410.507 578.422 414.778 599.781 410.372C606.722 408.922 613.576 407.08 620.308 404.853C619.483 402.344 621.062 401.872 622.874 400.215C623.888 399.44 626.88 398.724 628.255 398.323C629.212 397.232 644.536 389.943 646.839 388.99C660.918 383.167 686.309 364.361 691.491 349.672Z"/><path fill="#0246A7" transform="scale(1.23077 1.23077)" d="M622.874 400.215C623.888 399.44 626.88 398.724 628.255 398.323C626.407 399.959 625.628 400.048 625.225 402.057L625.5 401.984C624.322 404.251 622.951 404.259 620.308 404.853C619.483 402.344 621.062 401.872 622.874 400.215Z"/><path fill="#0255BF" transform="scale(1.23077 1.23077)" d="M489.597 401.241C460.652 364.062 460.676 317.032 485.489 277.132C501.417 251.518 524.202 237.095 550.95 224.469L542.25 235.427C537.129 244.863 531.557 255.091 529.537 265.763C526.064 284.101 528.523 301.885 539.496 317.315C523.033 323.204 512.295 332.826 501.925 346.489L498.13 352.919C489.572 370.816 488.335 381.666 489.597 401.241Z"/><path fill="#122E6C" transform="scale(1.23077 1.23077)" d="M530.591 243.89C534.357 240.375 537.676 235.776 542.25 235.427C537.129 244.863 531.557 255.091 529.537 265.763C526.064 284.101 528.523 301.885 539.496 317.315C523.033 323.204 512.295 332.826 501.925 346.489C500.723 343.151 500.198 339.316 499.975 335.762C497.743 300.219 507.989 270.75 530.591 243.89Z"/><path fill="#0E87DD" transform="scale(1.23077 1.23077)" d="M498.13 352.919C498.705 345.205 496.14 330.558 495.956 321.469C495.216 297.893 503.976 274.015 518.401 255.523C521.157 251.99 525.879 243.923 530.591 243.89C507.989 270.75 497.743 300.219 499.975 335.762C500.198 339.316 500.723 343.151 501.925 346.489L498.13 352.919Z"/><path fill="#122E6C" transform="scale(1.23077 1.23077)" d="M515.13 492.735C526.039 492.213 528.293 499.442 532.784 498.615C533.187 496.824 533.218 496.274 534.107 494.706C537.06 493.884 543.31 494.283 546.622 494.355L546.632 549.698L533.368 549.655L532.999 542.612L528.059 547.375C519.661 552.812 506.228 552.91 498.982 546.172C478.824 527.429 486.409 495.66 515.13 492.735ZM520.016 537.923C525.807 536.966 530.63 532.954 532.624 527.432C534.619 521.911 533.475 515.742 529.634 511.304C525.792 506.865 519.852 504.85 514.103 506.034C505.454 507.815 499.82 516.193 501.43 524.878C503.041 533.563 511.303 539.362 520.016 537.923Z"/><path fill="#122E6C" transform="scale(1.23077 1.23077)" d="M756.077 492.74C764.554 492.145 768.301 495.551 774.093 499.774L774.763 499.017C774.527 497.518 774.436 497.503 774.908 495.997C778.02 493.401 784.018 494.259 788.208 494.377L788.025 549.604L774.674 549.674C774.65 547.459 774.712 546.208 774.248 544.011C772.796 544.079 771.94 545.36 770.619 546.583C767.803 548.815 764.056 550.539 760.48 550.934C722.933 555.082 716.797 497.136 756.077 492.74ZM761.346 537.882C769.984 536.534 775.949 528.511 774.753 519.848C773.556 511.185 765.639 505.081 756.959 506.127C751.209 506.82 746.28 510.563 744.066 515.917C741.853 521.271 742.7 527.403 746.282 531.956C749.864 536.508 755.623 538.774 761.346 537.882Z"/><path fill="#122E6C" transform="scale(1.23077 1.23077)" d="M621.895 494.356C626.68 494.324 631.542 494.395 636.333 494.424C635.078 498.409 633.673 502.497 632.36 506.475C628.132 520.417 622.632 535.771 617.997 549.728L605.093 549.725C603.452 543.446 596.902 523.324 594.518 517.658C591.098 526.636 587.368 540.102 584.445 549.573L571.914 549.686C565.775 532.194 558.641 512.103 553.391 494.34L567.569 494.361C571.666 505.477 575.451 518.767 578.706 530.178C582.531 519.486 586.157 505.585 589.612 494.363L599.74 494.379C601.908 502.657 607.618 522.595 610.942 530.08C615.079 518.589 618.03 506.094 621.895 494.356Z"/><path fill="#122E6C" transform="scale(1.23077 1.23077)" d="M691.121 493.251C693.129 493.151 695.139 493.094 697.149 493.081C717.361 493.142 722.914 509.719 722.565 527.064C709.455 527.602 693.759 527.226 680.451 527.255C691.441 550.974 705.392 532.662 712.153 534.22C714.293 536.718 717.341 539.472 719.763 541.786C715.493 545.558 710.949 548.408 705.443 550.052C697.464 552.478 688.844 551.601 681.517 547.616C674.683 543.926 669.645 537.613 667.563 530.129C664.822 519.912 667.851 506.766 676.198 499.88C680.82 496.067 685.428 494.654 691.121 493.251ZM680.451 516.24L696.82 516.275L709.871 516.281C706.448 508.627 703.593 504.404 694.208 504.73C687.999 506.368 685.23 507.717 681.884 513.498C681.372 514.393 680.894 515.308 680.451 516.24Z"/><path fill="#122E6C" transform="scale(1.23077 1.23077)" d="M822.76 470.662C836.221 469.745 836.18 471.715 835.96 484.416L828.108 482.625C820.137 484.564 812.772 492.002 825.045 494.392C827.117 494.796 833.616 494.356 836.072 494.306L836.092 506.435L819.577 506.446L819.526 540.952L819.538 549.639L805.522 549.641L805.596 506.6L795.454 506.497C795.419 502.491 795.458 498.485 795.571 494.48L805.428 494.284C805.508 480.336 808.642 473.811 822.76 470.662Z"/><path fill="#122E6C" transform="scale(1.23077 1.23077)" d="M431.218 492.703C441.446 492.11 447.168 496.015 454.703 501.99L445.692 510.888C439.147 506.002 432.152 502.534 424.487 507.994C420.615 510.752 417.674 514.847 416.98 519.623C416.349 524.195 417.56 528.831 420.345 532.511C427.039 541.35 436.815 539.769 444.768 533.743C446.871 533.54 446.093 533.48 448.276 535.24L455.144 542.006C443.768 552.051 427.886 555.59 414.965 546.144C408.63 541.434 404.428 534.396 403.285 526.583C400.298 506.992 412.761 495.215 431.218 492.703Z"/><path fill="#122E6C" transform="scale(1.23077 1.23077)" d="M464.395 471.279L477.849 471.306L478.005 549.635L464.394 549.663C463.751 524.346 464.333 496.689 464.395 471.279Z"/><path fill="#122E6C" transform="scale(1.23077 1.23077)" d="M643.437 471.201L656.86 471.227L656.921 549.71L643.381 549.683C643.034 523.916 643.472 497.068 643.437 471.201Z"/><path fill="#2CBCE7" transform="scale(1.23077 1.23077)" d="M560.789 181.465C564.356 193.448 566.811 195.389 578.674 198.185C568.005 200.838 565.092 202.117 561.29 212.882C560.212 211.764 558.869 208.53 557.931 206.992C553.778 200.182 551.127 199.873 544.144 197.961C555.731 194.244 557.171 193.123 560.789 181.465Z"/><path fill="#0E87DD" transform="scale(1.23077 1.23077)" d="M603.534 333.676C608.047 332.088 612.988 334.486 614.534 339.014C616.08 343.542 613.638 348.463 609.096 349.968C604.614 351.453 599.772 349.048 598.246 344.578C596.72 340.108 599.079 335.243 603.534 333.676Z"/><path fill="#818189" transform="scale(1.23077 1.23077)" d="M620.89 590.81C627.628 591.674 628.776 596.298 631.052 601.921L631.613 600.686C633.125 597.389 634.961 592.108 638.261 590.877L639.367 591.565C642.073 595.762 642.438 606.399 638.576 609.742C637.625 608.892 637.868 608.737 637.508 607.222L637.227 598.571C635.471 601.662 633.917 606.364 630.128 605.876C628.013 604.336 626.396 600.9 625.055 598.515C624.896 602.542 625.152 606.382 623.278 609.903L622.649 609.883C620.572 605.836 620.925 595.552 620.89 590.81Z"/><path fill="#818189" transform="scale(1.23077 1.23077)" d="M674.943 589.545C675.882 589.849 676.361 590.257 677.183 590.809C679.495 595.045 677.975 604.921 677.463 609.928C673.706 610.166 669.118 610.75 665.731 609.134C655.414 598.779 665.043 597.872 673.736 595.67C674.742 594.399 674.769 591.33 674.943 589.545Z"/><path fill="#818189" transform="scale(1.23077 1.23077)" d="M402.52 590.173C406.755 591.837 413.169 605.568 412.751 609.721L411.81 610.37C408.6 609.323 409.853 607.518 406.604 606.519C398.29 605.735 399.598 609.404 394.774 609.641C394.137 607.405 401.09 593.321 402.52 590.173Z"/><path fill="#818189" transform="scale(1.23077 1.23077)" d="M531.317 595.552C535.305 594.325 539.544 596.51 540.859 600.471C542.175 604.432 540.086 608.719 536.156 610.123C533.534 611.06 530.612 610.503 528.517 608.669C526.423 606.836 525.485 604.011 526.066 601.289C526.647 598.566 528.656 596.371 531.317 595.552Z"/><path fill="#818189" transform="scale(1.23077 1.23077)" d="M586.277 595.848C590.21 594.305 594.647 596.262 596.16 600.207C597.673 604.153 595.682 608.576 591.726 610.059C587.812 611.526 583.449 609.561 581.952 605.658C580.455 601.755 582.386 597.375 586.277 595.848Z"/><path fill="#818189" transform="scale(1.23077 1.23077)" d="M470.745 595.715C470.815 595.719 473.275 596.351 473.389 596.391C477.511 597.836 478.546 594.062 482.927 596.177C485.735 598.993 486.927 606.703 484.724 609.871C480.617 608.791 482.552 601.267 479.587 598.836C475.364 599.503 475.819 603.96 475.741 607.231C475.868 608.852 475.801 609.407 474.5 610.275C471.669 607.244 473.508 599.547 469.617 598.9C464.039 603.111 468.451 606.692 466.07 610.016L464.992 609.78C462.721 606.798 463.179 601.026 463.189 597.212C465.587 596.569 468.283 596.158 470.745 595.715Z"/><path fill="#818189" transform="scale(1.23077 1.23077)" d="M364.617 590.372C368.307 592.445 375.162 605.508 374.284 609.686L373.212 610.091C371.197 609.489 370.12 607.544 368.345 606.105L368.007 605.835C361.44 605.92 360.886 606.974 355.447 610.615C358.202 603.458 360.71 596.99 364.617 590.372Z"/><path fill="#818189" transform="scale(1.23077 1.23077)" d="M650.876 595.462C654.395 595.6 657.136 596.092 659.27 599.315C660.304 600.861 660.626 602.777 660.154 604.576C659.417 607.311 657.508 608.633 655.311 610.043C644.005 610.929 640.976 600.514 650.876 595.462ZM654.779 606.318C656.651 605.168 657.231 602.716 656.072 600.85C654.913 598.983 652.458 598.416 650.599 599.585C648.753 600.745 648.191 603.179 649.341 605.031C650.491 606.883 652.921 607.458 654.779 606.318Z"/><path fill="#818189" transform="scale(1.23077 1.23077)" d="M450.119 595.719C454.113 594.692 458.179 597.118 459.173 601.121C460.167 605.125 457.708 609.171 453.697 610.132C449.733 611.082 445.745 608.657 444.763 604.7C443.781 600.744 446.172 596.734 450.119 595.719ZM453.925 606.544C455.878 605.446 456.563 602.966 455.449 601.021C454.335 599.077 451.85 598.413 449.915 599.544C448.003 600.661 447.349 603.111 448.45 605.033C449.551 606.954 451.995 607.629 453.925 606.544Z"/><path fill="#818189" transform="scale(1.23077 1.23077)" d="M738.567 590.122C739.518 590.433 740.317 590.923 741.196 591.402C742.523 593.545 742.253 595.61 742.648 598.262C745.729 598.573 746.992 598.563 750.094 598.392C750.338 596.088 750.296 592.369 751.573 590.91L752.754 591.273C755.39 594.929 754.015 605.846 753.732 610.954C747.535 607.039 752.342 606.194 749.851 602.904C747.618 601.688 744.465 602.039 741.797 602.071C741.765 604.226 742.101 608.001 740.283 609.296C737.886 605.729 738.432 594.614 738.567 590.122Z"/><path fill="#818189" transform="scale(1.23077 1.23077)" d="M492.084 595.592C495.177 595.462 496.702 594.853 499.569 597.06C504.585 600.92 505.411 607.336 498.798 610.006C497.884 610.374 493 610.224 491.614 610.199L490.001 609.918C483.86 604.302 495.463 601.115 496.319 599.744C494.54 598.412 493.073 598.929 490.288 598.512L490.19 597.687L492.084 595.592Z"/><path fill="#818189" transform="scale(1.23077 1.23077)" d="M876.76 595.473C883.933 595.226 884.805 596.747 887.904 602.699C885.254 603.645 880.667 604.323 877.292 605.326L877.037 605.876C879.293 606.62 881.154 606.511 883.529 606.573L884.73 607.19L885.046 608.324C879.907 613.272 862.287 608.237 876.76 595.473Z"/><path fill="#818189" transform="scale(1.23077 1.23077)" d="M686.09 596.095C689.616 596.096 698.548 597.279 696.634 602.512C694.4 604.073 690.613 604.432 687.625 605.273L687.517 606.054C690.43 607.101 690.916 606.993 693.92 606.611C694.117 606.771 694.494 607.46 694.65 607.717L693.982 608.737C687.48 612.462 672.682 607.491 686.09 596.095Z"/><path fill="#818189" transform="scale(1.23077 1.23077)" d="M850.095 594.914C854.195 595.736 856.668 597.139 858.404 601.458C859.835 605.019 858.749 606.041 857.231 609.206C853.547 609.901 851.452 610.041 847.683 610.238C845.981 609.153 845.156 607.534 844.866 605.631C846.304 602.298 850.856 600.977 854.233 599.591C851.783 599.291 847.673 599.143 846.398 596.915C847.641 595.454 848.128 595.625 850.095 594.914Z"/><path fill="#818189" transform="scale(1.23077 1.23077)" d="M763.712 595.425C767.626 595.891 771.24 596.568 772.359 600.766C770.502 604.048 766.964 604.518 763.185 605.705L763.149 606.357C765.791 607.496 766.695 607.111 769.518 606.555L770.125 606.947L770.237 608.22C768.541 610.209 765.938 610.436 763.459 610.227C759.066 609.856 757.424 604.51 758.232 600.845C758.824 598.158 761.568 596.761 763.712 595.425Z"/><path fill="#2CBCE7" transform="scale(1.23077 1.23077)" d="M741.623 280.343C742.519 281.412 743.423 284.579 743.949 286.09C745.896 287.315 749.258 288.946 751.397 290.061C742.563 295.016 745.882 294.755 741.35 301.215C738.995 293.293 736.937 292.731 729.499 290.548C737.048 287.944 738.432 288.055 741.623 280.343Z"/><path fill="#818189" transform="scale(1.23077 1.23077)" d="M777.504 595.6C778.253 595.545 779.004 595.507 779.755 595.486C786.6 595.32 791.674 603.749 786.341 608.839C784.325 610.763 781.284 610.353 778.633 610.353C776.848 610.23 776.137 609.424 775.301 608.007C775.017 603.235 779.7 601.147 783.28 599.438C780.879 599.086 777.9 599.146 776.587 597.12L777.504 595.6Z"/><path fill="#818189" transform="scale(1.23077 1.23077)" d="M824.417 610.789C820.981 607.778 823.558 604.107 820.853 599.576C819.119 598.483 820.003 598.63 818.174 598.854C816.326 601.974 816.774 605.955 815.102 609.826L814.256 610.114L813.566 609.225C812.729 605.162 812.287 593.41 813.653 589.636L814.963 589.605C816.405 591.196 816.582 593.459 817.045 595.667C821.924 597.084 821.237 593.144 825.568 599.036C826.564 604.448 826.201 605.532 824.417 610.789Z"/><path fill="#056CD0" transform="scale(1.23077 1.23077)" d="M567.754 306.175C571.233 305.559 574.558 307.867 575.199 311.343C575.84 314.819 573.557 318.161 570.087 318.827C566.581 319.501 563.197 317.189 562.55 313.677C561.902 310.165 564.238 306.798 567.754 306.175Z"/><path fill="#818189" transform="scale(1.23077 1.23077)" d="M545.492 595.775C548.587 595.679 554.62 595.096 556.873 597.459C559.385 600.094 558.977 606.916 556.562 609.493L555.564 609.342C553.961 607.056 554.035 604.873 553.787 602.075C553.837 601.729 553.767 600.582 553.752 600.164L552.321 599.014C548.545 599.693 549.209 606.643 546.275 610.003L545.527 609.587C543.127 604.506 544.128 601.022 545.492 595.775Z"/><path fill="#818189" transform="scale(1.23077 1.23077)" d="M711.32 595.409C714.316 595.636 720.69 595.594 722.957 597.568C725.842 600.082 725.346 607.027 722.877 609.796L721.882 609.534C720.914 607.793 720.923 603.734 720.792 601.548C720.406 600.346 719.903 599.879 719.114 598.912C714.807 598.316 715.34 608.015 712.432 609.601C711.134 605.487 711.236 599.765 711.32 595.409Z"/><path fill="#818189" transform="scale(1.23077 1.23077)" d="M416.494 595.075C420.858 596.753 418.353 605.91 422.952 606.927C426.858 603.048 425.138 597.698 427.458 595.68C428.787 596.969 428.388 596.384 428.642 598.605C428.954 602.46 429.944 606.697 426.833 609.554C423.838 612.304 420.435 610.962 418.184 608.105C414.837 603.856 415.772 599.962 416.494 595.075Z"/><path fill="#2CBCE7" transform="scale(1.23077 1.23077)" d="M646.045 168.591C646.774 169.547 648.623 173.17 649.295 174.425C651.028 175.419 651.851 175.854 653.381 177.109C652.769 179.241 649.607 179.961 648.17 181.948C647.306 183.143 646.493 185.135 645.908 186.514L643.703 181.178C641.57 179.93 639.225 178.686 637.049 177.479C639.056 176.501 641.185 175.353 643.183 174.321C644.103 172.788 645.232 170.265 646.045 168.591Z"/><path fill="#818189" transform="scale(1.23077 1.23077)" d="M831.724 597.39C835.977 594.801 837.592 594.025 841.975 596.982L842.179 597.885C838.02 599.903 834.604 598.838 832.752 602.411C832.994 604.406 833.09 604.454 834.483 606.006C838.205 607.716 839.355 604.159 841.842 606.954L842.15 608.52C838.723 611.276 832.016 608.84 828.98 606.062C829.1 601.566 829.366 600.967 831.724 597.39Z"/><path fill="#818189" transform="scale(1.23077 1.23077)" d="M574.696 589.979C577.084 590.028 578.398 589.812 580.421 591.035L580.264 591.949L576.512 594.406L576.517 595.12C578.058 595.869 578.237 595.907 579.438 597.088L579.262 598.144L576.483 599.15C575.686 600.462 575.973 605.299 575.962 607.238C575.919 609.089 575.6 609.572 574.554 610.729C572.196 609.458 571.993 600.946 570.574 597.557C571.11 595.085 573.262 592.186 574.696 589.979Z"/><path fill="#818189" transform="scale(1.23077 1.23077)" d="M508.409 591.454C510.886 592.703 509.97 593.034 511.467 595.256C511.742 595.665 512.747 594.994 514.128 596.635C505.522 605.564 512.864 605.449 516.115 609.016C506.542 612.886 506.737 605.904 506.361 598.366C506.196 595.069 506.843 594.322 508.409 591.454Z"/><path fill="#818189" transform="scale(1.23077 1.23077)" d="M802.188 591.383C803.626 592.075 806.504 594.907 807.425 596.255C807.275 600.378 803.296 600.606 804.747 605.232C806.195 607.012 808.273 607.439 810.457 608.15C806.562 618.038 797.226 602.246 802.188 591.383Z"/><path fill="#818189" transform="scale(1.23077 1.23077)" d="M435.481 591.452C436.101 591.768 439.5 595.419 440.102 596.136C440.263 598.3 438.083 600.685 436.875 603.458C437.184 605.564 436.79 604.827 438.205 606.321C440.079 606.799 441.399 606.901 442.79 608.326C441.784 608.968 440.643 609.592 439.599 610.191C433.321 610.307 434.074 602.414 433.439 597.963C433.049 595.223 434.155 593.775 435.481 591.452Z"/><path fill="#818189" transform="scale(1.23077 1.23077)" d="M378.753 590.152C380.046 590.526 380.111 590.701 381.128 591.543C383.024 595.332 382.66 607.27 381.508 611.089C380.565 610.707 379.99 610.251 379.163 609.68C376.907 604.761 378.184 595.62 378.753 590.152Z"/><path fill="#818189" transform="scale(1.23077 1.23077)" d="M792.694 589.553C793.97 589.873 793.903 589.933 794.934 590.787C796.788 595.021 795.842 605.782 795.851 611.379C794.969 610.872 794.238 610.323 793.416 609.733C791.108 605.053 792.274 595.081 792.694 589.553Z"/><path fill="#818189" transform="scale(1.23077 1.23077)" d="M706.981 596.02L707.764 596.102C708.335 597.789 708.314 596.941 707.674 598.729C698.999 603.931 707.296 605.332 700.993 611.326C699.924 607.736 699.081 600.685 700.698 597.117C701.038 596.367 705.512 596.366 706.981 596.02Z"/><path fill="#818189" transform="scale(1.23077 1.23077)" d="M862.323 595.419C865.861 596.937 865.808 595.214 869.709 596.618L870.093 597.578C868.6 600.236 867.272 600.19 865.458 602.554L865.838 603.709C865.747 605.676 865.888 608.083 864.018 609.043C861.136 606.491 861.926 598.853 862.323 595.419Z"/><path fill="#818189" transform="scale(1.23077 1.23077)" d="M600.662 595.993C604.183 596.561 605.768 596.457 609.373 596.315C604.821 601.044 604.065 600.518 603.813 607.039C603.227 608.882 603.26 609.274 601.821 610.401L600.971 609.735C599.935 604.956 600.341 600.866 600.662 595.993Z"/><path fill="#818189" transform="scale(1.23077 1.23077)" d="M518.714 594.935C524.683 596.387 522.523 606.555 522.108 611.237C520.993 610.854 520.496 610.447 519.536 609.801C517.095 605.365 518.261 600.063 518.714 594.935Z"/><path fill="#FEFEFE" fill-opacity="0.015686275" transform="scale(1.23077 1.23077)" d="M825.568 599.036L825.986 598.554L825.205 596.014L825.741 595.717C826.839 597.661 826.498 597.877 828.065 598.411L830.087 596.907L831.724 597.39C829.366 600.967 829.1 601.566 828.98 606.062C828.018 608.227 827.787 608.562 826.263 610.382C825.444 610.625 825.246 610.771 824.417 610.789C826.201 605.532 826.564 604.448 825.568 599.036Z"/><path fill="#2CBCE7" transform="scale(1.23077 1.23077)" d="M595.526 203.273C597.408 203.851 597.777 204.281 598.699 205.87C598.864 208.083 598.036 208.915 596.805 210.721C595.001 209.977 594.349 209.44 593.557 207.801C593.83 205.007 593.783 205.781 595.526 203.273Z"/></svg>